<?xml version="1.0" encoding="UTF-8" standalone="no"?>
<!DOCTYPE svg PUBLIC "-//W3C//DTD SVG 1.1//EN" "http://www.w3.org/Graphics/SVG/1.1/DTD/svg11.dtd">
<svg width="100%" height="100%" viewBox="0 0 642 642" version="1.1" xmlns="http://www.w3.org/2000/svg" xmlns:xlink="http://www.w3.org/1999/xlink" xml:space="preserve" xmlns:serif="http://www.serif.com/" style="fill-rule:evenodd;clip-rule:evenodd;stroke-linejoin:round;stroke-miterlimit:2;">
    <g id="Card" transform="matrix(4.51647,0,0,4.16667,-1.24345e-13,0)">
        <path d="M142,12.314C142,5.518 136.91,0 130.64,0L11.36,0C5.09,0 0,5.518 0,12.314L0,141.686C0,148.482 5.09,154 11.36,154L130.64,154C136.91,154 142,148.482 142,141.686L142,12.314Z"/>
    </g>
    <g id="MEP-Logo" serif:id="MEP Logo" transform="matrix(2.89316,0,0,2.89316,115.118,98.3642)">
        <path d="M121.18,118.54C116.06,115.23 109.23,116.69 105.91,121.8C102.58,126.92 104.05,133.77 109.17,137.08C114.29,140.41 121.12,138.94 124.45,133.82C127.75,128.69 126.28,121.86 121.18,118.54" style="fill:rgb(253,197,4);fill-rule:nonzero;"/>
        <path d="M71.77,128.75C69.89,128.75 67.71,128.58 65.25,128.29L65.25,111.33C65.25,107.39 65.92,105.73 71.85,105.73C79.54,105.73 82.8,108.61 82.8,117.25C82.8,125.91 79.53,128.75 71.77,128.75M71.36,95.96C59.15,95.96 53.94,99.71 53.94,109.07L53.94,150.64C53.94,153.09 55.32,154.48 57.78,154.48L61.7,154.48C64.17,154.48 65.55,153.09 65.55,150.64L65.55,138.26C67.56,138.43 69.53,138.53 71.36,138.53C86.02,138.53 94.7,133.18 94.7,117.25C94.71,101.35 86.02,95.96 71.36,95.96" style="fill:white;fill-rule:nonzero;"/>
        <path d="M100.72,0.02C77.2,-0.79 67.05,21.09 67.05,21.09C62.43,17.55 54.59,14.24 44.05,15.34C24.27,17.4 18.59,30.36 18.59,30.36C14.87,25.53 9.18,22.39 3.69,21.62C1.74,21.33 0,22.88 0,24.85L0,33.73C0,35.19 0.97,36.47 2.37,36.87C15.86,40.76 11.55,57.81 14.69,83.81C14.96,86.04 16.55,87.68 18.79,87.59L27.85,86.42C29.92,86.33 31.43,84.01 31.35,82.29C30.09,54.78 27.03,32.51 46.28,31.52C58.29,30.9 64.79,40.29 63.28,83.08C63.2,85.24 64.85,86.98 67,86.96L76.84,86.96C78.94,86.94 80.84,85.32 80.69,83.23C76.86,30.11 86.04,17.66 100.78,17.33C117.84,16.94 131.16,48.3 117.1,100.8C116.38,103.47 116.5,105.34 119.55,106.86L126.66,109.88C129.04,110.88 131.68,109.64 132.72,107.43C147.31,76.26 149.18,1.71 100.72,0.02" style="fill:white;fill-rule:nonzero;"/>
        <path d="M34.79,110.62C34.79,106.13 32.04,103.38 26.01,103.72C19.59,104.09 16.03,107 15.25,114.67L31.54,113.02C34.27,112.75 34.79,112.22 34.79,110.62M34.82,121.45L16.7,123.33C18.24,128.13 24.17,129.84 29.86,129.84C32.64,129.84 35.99,129.37 39.67,128.47C42.45,127.83 44.13,129.03 44.13,131.81L44.13,133.09C44.13,135.4 43.06,136.9 40.79,137.5C36.16,138.74 31.79,139.38 27.77,139.38C14.79,139.38 4.69,130.58 4.69,117.57C4.69,106.04 11.43,95.72 25.82,95.72C37.9,95.72 45.05,101.38 45.05,112.09C45.05,118.11 42.52,120.63 34.82,121.45" style="fill:white;fill-rule:nonzero;"/>
    </g>
</svg>
